<?xml version="1.0" encoding="UTF-8"?>
<svg width="700pt" height="700pt" version="1.1" viewBox="0 0 700 700" xmlns="http://www.w3.org/2000/svg" xmlns:xlink="http://www.w3.org/1999/xlink">
 <defs>
  <symbol id="l" overflow="visible">
   <path d="m29.312-1.75c-1.5117 0.78125-3.0898 1.3711-4.7344 1.7656-1.6367 0.40625-3.3398 0.60938-5.1094 0.60938-5.3125 0-9.5273-1.4844-12.641-4.4531-3.1055-2.9688-4.6562-7-4.6562-12.094s1.5508-9.125 4.6562-12.094c3.1133-2.9688 7.3281-4.4531 12.641-4.4531 1.7695 0 3.4727 0.19922 5.1094 0.59375 1.6445 0.39844 3.2227 0.99219 4.7344 1.7812v6.5938c-1.5312-1.0391-3.0391-1.8008-4.5156-2.2812-1.4805-0.48828-3.0391-0.73438-4.6719-0.73438-2.9375 0-5.2461 0.94531-6.9219 2.8281-1.6797 1.875-2.5156 4.4648-2.5156 7.7656 0 3.293 0.83594 5.8828 2.5156 7.7656 1.6758 1.875 3.9844 2.8125 6.9219 2.8125 1.6328 0 3.1914-0.23828 4.6719-0.71875 1.4766-0.48828 2.9844-1.2539 4.5156-2.2969z"/>
  </symbol>
  <symbol id="h" overflow="visible">
   <path d="m21.453-17.406c-0.67969-0.3125-1.3516-0.53906-2.0156-0.6875-0.65625-0.15625-1.3203-0.23438-1.9844-0.23438-1.9688 0-3.4844 0.63281-4.5469 1.8906-1.0547 1.2617-1.5781 3.0703-1.5781 5.4219v11.016h-7.6562v-23.922h7.6562v3.9219c0.97656-1.5625 2.1016-2.7031 3.375-3.4219 1.2812-0.71875 2.8125-1.0781 4.5938-1.0781 0.25 0 0.52344 0.011719 0.82812 0.03125 0.30078 0.023438 0.73438 0.070312 1.2969 0.14062z"/>
  </symbol>
  <symbol id="a" overflow="visible">
   <path d="m27.562-12.031v2.1875h-17.891c0.1875 1.793 0.83203 3.1367 1.9375 4.0312 1.1133 0.89844 2.6719 1.3438 4.6719 1.3438 1.6016 0 3.25-0.23438 4.9375-0.70312 1.6875-0.47656 3.4219-1.2031 5.2031-2.1719v5.8906c-1.8047 0.6875-3.6094 1.2031-5.4219 1.5469-1.8125 0.35156-3.6211 0.53125-5.4219 0.53125-4.3359 0-7.7031-1.0977-10.109-3.2969-2.3984-2.207-3.5938-5.2969-3.5938-9.2656 0-3.9062 1.1758-6.9727 3.5312-9.2031 2.3633-2.2383 5.6094-3.3594 9.7344-3.3594 3.7578 0 6.7695 1.1367 9.0312 3.4062 2.2578 2.2617 3.3906 5.2812 3.3906 9.0625zm-7.8594-2.5312c0-1.457-0.42969-2.6289-1.2812-3.5156-0.84375-0.89453-1.9492-1.3438-3.3125-1.3438-1.4922 0-2.6992 0.41797-3.625 1.25-0.91797 0.83594-1.4922 2.0391-1.7188 3.6094z"/>
  </symbol>
  <symbol id="c" overflow="visible">
   <path d="m14.391-10.766c-1.5938 0-2.793 0.27344-3.5938 0.8125-0.80469 0.54297-1.2031 1.3398-1.2031 2.3906 0 0.96875 0.32031 1.7305 0.96875 2.2812 0.64453 0.54297 1.5469 0.8125 2.7031 0.8125 1.4375 0 2.6445-0.51562 3.625-1.5469 0.98828-1.0312 1.4844-2.3203 1.4844-3.875v-0.875zm11.688-2.8906v13.656h-7.7031v-3.5469c-1.0312 1.4492-2.1875 2.5078-3.4688 3.1719s-2.8398 1-4.6719 1c-2.4805 0-4.4961-0.72266-6.0469-2.1719-1.543-1.4453-2.3125-3.3203-2.3125-5.625 0-2.8125 0.96094-4.8672 2.8906-6.1719 1.9375-1.3125 4.9688-1.9688 9.0938-1.9688h4.5156v-0.60938c0-1.207-0.48047-2.0938-1.4375-2.6562-0.94922-0.5625-2.4375-0.84375-4.4688-0.84375-1.6367 0-3.1562 0.16797-4.5625 0.5-1.4062 0.32422-2.7188 0.8125-3.9375 1.4688v-5.8281c1.6445-0.40625 3.2891-0.70703 4.9375-0.90625 1.6562-0.20703 3.3047-0.3125 4.9531-0.3125 4.3203 0 7.4375 0.85547 9.3438 2.5625 1.9141 1.6992 2.875 4.4609 2.875 8.2812z"/>
  </symbol>
  <symbol id="b" overflow="visible">
   <path d="m12.031-30.719v6.7969h7.875v5.4688h-7.875v10.141c0 1.1172 0.21875 1.8711 0.65625 2.2656 0.4375 0.38672 1.3125 0.57812 2.625 0.57812h3.9375v5.4688h-6.5625c-3.0234 0-5.1641-0.62891-6.4219-1.8906-1.2617-1.2578-1.8906-3.3984-1.8906-6.4219v-10.141h-3.7969v-5.4688h3.7969v-6.7969z"/>
  </symbol>
  <symbol id="g" overflow="visible">
   <path d="m19.953-20.422v-12.812h7.6875v33.234h-7.6875v-3.4531c-1.0547 1.4062-2.2148 2.4375-3.4844 3.0938-1.2734 0.65625-2.7422 0.98438-4.4062 0.98438-2.9492 0-5.3711-1.1719-7.2656-3.5156-1.8867-2.3438-2.8281-5.3594-2.8281-9.0469s0.94141-6.7031 2.8281-9.0469c1.8945-2.3438 4.3164-3.5156 7.2656-3.5156 1.6562 0 3.1172 0.33594 4.3906 1 1.2812 0.65625 2.4453 1.6836 3.5 3.0781zm-5.0469 15.484c1.6445 0 2.8945-0.59766 3.75-1.7969 0.86328-1.1953 1.2969-2.9297 1.2969-5.2031 0-2.2812-0.43359-4.0195-1.2969-5.2188-0.85547-1.1953-2.1055-1.7969-3.75-1.7969-1.625 0-2.8711 0.60156-3.7344 1.7969-0.85547 1.1992-1.2812 2.9375-1.2812 5.2188 0 2.2734 0.42578 4.0078 1.2812 5.2031 0.86328 1.1992 2.1094 1.7969 3.7344 1.7969z"/>
  </symbol>
  <symbol id="f" overflow="visible">
   <path d="m16.406-4.9375c1.6328 0 2.8828-0.59766 3.75-1.7969 0.86328-1.1953 1.2969-2.9297 1.2969-5.2031 0-2.2812-0.43359-4.0195-1.2969-5.2188-0.86719-1.1953-2.1172-1.7969-3.75-1.7969-1.6367 0-2.8906 0.60547-3.7656 1.8125-0.875 1.1992-1.3125 2.9336-1.3125 5.2031 0 2.2617 0.4375 3.9961 1.3125 5.2031 0.875 1.1992 2.1289 1.7969 3.7656 1.7969zm-5.0781-15.484c1.0508-1.3945 2.2188-2.4219 3.5-3.0781 1.2812-0.66406 2.7539-1 4.4219-1 2.9453 0 5.3672 1.1719 7.2656 3.5156 1.8945 2.3438 2.8438 5.3594 2.8438 9.0469s-0.94922 6.7031-2.8438 9.0469c-1.8984 2.3438-4.3203 3.5156-7.2656 3.5156-1.668 0-3.1406-0.33594-4.4219-1s-2.4492-1.6914-3.5-3.0781v3.4531h-7.6562v-33.234h7.6562z"/>
  </symbol>
  <symbol id="e" overflow="visible">
   <path d="m0.53125-23.922h7.6562l6.4219 16.234 5.4688-16.234h7.6562l-10.062 26.188c-1.0117 2.6641-2.1953 4.5234-3.5469 5.5781-1.3438 1.0625-3.1211 1.5938-5.3281 1.5938h-4.4219v-5.0156h2.3906c1.3008 0 2.2422-0.21094 2.8281-0.625 0.59375-0.40625 1.0547-1.1484 1.3906-2.2188l0.20312-0.65625z"/>
  </symbol>
  <symbol id="d" overflow="visible">
   <path d="m0.21875-31.891h29.391v6.2188h-10.578v25.672h-8.2188v-25.672h-10.594z"/>
  </symbol>
  <symbol id="k" overflow="visible">
   <path d="m25.844-19.953c0.96875-1.4766 2.1172-2.6016 3.4531-3.375 1.332-0.78125 2.7969-1.1719 4.3906-1.1719 2.75 0 4.8438 0.85156 6.2812 2.5469 1.4375 1.6875 2.1562 4.1523 2.1562 7.3906v14.562h-7.6875v-12.469c0.007812-0.1875 0.019531-0.37891 0.03125-0.57812 0.007812-0.19531 0.015625-0.48438 0.015625-0.85938 0-1.6953-0.25-2.9258-0.75-3.6875-0.5-0.75781-1.3086-1.1406-2.4219-1.1406-1.4492 0-2.5703 0.60156-3.3594 1.7969-0.79297 1.1992-1.2031 2.9297-1.2344 5.1875v11.75h-7.6875v-12.469c0-2.6562-0.23047-4.3633-0.6875-5.125-0.44922-0.75781-1.2578-1.1406-2.4219-1.1406-1.4688 0-2.6055 0.60547-3.4062 1.8125-0.79297 1.1992-1.1875 2.918-1.1875 5.1562v11.766h-7.7031v-23.922h7.7031v3.5c0.9375-1.3516 2.0156-2.3672 3.2344-3.0469 1.2188-0.6875 2.5547-1.0312 4.0156-1.0312 1.6562 0 3.1133 0.40234 4.375 1.2031 1.2695 0.79297 2.2344 1.9062 2.8906 3.3438z"/>
  </symbol>
  <symbol id="j" overflow="visible">
   <path d="m11.328-3.4531v12.547h-7.6562v-33.016h7.6562v3.5c1.0508-1.3945 2.2188-2.4219 3.5-3.0781 1.2812-0.66406 2.7539-1 4.4219-1 2.9453 0 5.3672 1.1719 7.2656 3.5156 1.8945 2.3438 2.8438 5.3594 2.8438 9.0469s-0.94922 6.7031-2.8438 9.0469c-1.8984 2.3438-4.3203 3.5156-7.2656 3.5156-1.668 0-3.1406-0.33594-4.4219-1s-2.4492-1.6914-3.5-3.0781zm5.0781-15.5c-1.6367 0-2.8906 0.60547-3.7656 1.8125-0.875 1.1992-1.3125 2.9336-1.3125 5.2031 0 2.2617 0.4375 3.9961 1.3125 5.2031 0.875 1.1992 2.1289 1.7969 3.7656 1.7969 1.6328 0 2.8828-0.59766 3.75-1.7969 0.86328-1.1953 1.2969-2.9297 1.2969-5.2031 0-2.2812-0.43359-4.0195-1.2969-5.2188-0.86719-1.1953-2.1172-1.7969-3.75-1.7969z"/>
  </symbol>
  <symbol id="i" overflow="visible">
   <path d="m3.6719-33.234h7.6562v33.234h-7.6562z"/>
  </symbol>
 </defs>
 <g>
  <path d="m440.88 313.16c1.5742 1.2227 3.4727 1.8359 5.3711 1.8359 1.9336 0 3.8672-0.64062 5.4688-1.918l87.5-70c3.4219-2.7305 4.2891-7.5781 2.0312-11.332l-26.25-43.75c-1.3203-2.2031-3.5508-3.7188-6.0977-4.1406-2.5625-0.38672-5.1367 0.31641-7.0977 1.9961l-15.469 13.258-80.598-32.234c-0.5-0.19141-1.0078-0.35156-1.5312-0.45312l-71.469-14.289 23.441-23.441c2.2305-2.2305 3.0898-5.4844 2.25-8.5234-0.84766-3.0352-3.2539-5.3906-6.3164-6.1523l-32.637-8.1641-24.543-24.535c-2.0742-2.0742-5.0234-2.9766-7.9453-2.3789-2.8789 0.58594-5.2773 2.5898-6.3711 5.3203l-15.426 38.57-16.285-8.1445c-3.6562-1.8281-8.1016-0.88281-10.691 2.2852l-78.75 96.25c-1.4336 1.7578-2.1367 4.0078-1.9414 6.2656l8.75 105c0.26953 3.2969 2.3906 6.168 5.4688 7.4023l87.5 35c1.0547 0.39844 2.1562 0.60938 3.2578 0.60938 1.3398 0 2.6875-0.30469 3.9102-0.91797l39.84-19.926v20.844c0 3.1406 1.6797 6.0391 4.4102 7.5938l10.02 5.7227-66.098 140.45c-1.0586 2.2578-1.1094 4.875-0.12109 7.168 0.98047 2.3008 2.9062 4.0703 5.2773 4.8555l52.5 17.5c0.90625 0.30859 1.8438 0.45703 2.7617 0.45703 3.3945 0 6.5898-1.9844 8.0156-5.2422l57.348-131.08 49.191 28.113 16.816 100.91c0.71094 4.2695 4.4219 7.3047 8.6211 7.3047 0.48047 0 0.95312-0.035156 1.4453-0.12109l52.5-8.75c2.3906-0.39453 4.5078-1.7656 5.8438-3.7812 1.3398-2.0117 1.793-4.4961 1.2422-6.8516l-35-148.75c-0.52344-2.2227-1.8984-4.1562-3.8242-5.3828l-65.137-41.449 5.8359-40.871zm64.449-107.28 16.977 28.305-11.586 9.2656-19.266-25.691zm-33.984 6.0742-25.461 21.824-60.445-45.332 5.4844-6.8516 9.0742 1.8125zm-179.4-108.89 16.871 16.871c1.1211 1.1211 2.5273 1.918 4.0703 2.3008l20.004 5.0039-19.617 19.617-32.367-16.188zm-29.848 246.1-78.828-31.535-8.0078-96.082 72.074-88.094 63.742 31.875c0.69141 0.35156 1.4336 0.60547 2.1953 0.75391l58.32 11.664-63.438 79.293c-1.2344 1.5469-1.9062 3.4727-1.9062 5.457v64.594zm48.09 182.51-35.578-11.855 8.3828-17.816 31.824 19.094zm11.699-26.75-31.402-18.848 45.438-96.547 29.164 16.66zm140.3 27.504-1.5039-9.0312 32.348-12.941 3.8047 16.195zm-66.332-206.58-14.91-9.4844-9.3984 14.77 93.25 59.332 24.176 102.77-31.238 12.496-11.609-69.668c-0.4375-2.5898-2.0039-4.8555-4.2891-6.1602l-118.09-67.48v-96.855l50.758-63.445 66.5 49.875c3.2734 2.4688 7.832 2.3203 10.938-0.35938l26.199-22.453 18.91 25.219-50.883 40.703-73.297-57.016-10.754 13.816 39.863 31.012z"/>
  <path d="m367.5 61.25h8.75v78.75c0 4.8281 3.9102 8.75 8.75 8.75h43.75c28.953 0 52.5-23.547 52.5-52.5v-35h8.75c4.8398 0 8.75-3.9219 8.75-8.75v-35c0-4.8281-3.9102-8.75-8.75-8.75h-122.5c-4.8398 0-8.75 3.9219-8.75 8.75v35c0 4.8281 3.9102 8.75 8.75 8.75zm96.25 35c0 19.301-15.699 35-35 35h-35v-70h70zm-87.5-70h105v17.5h-105z"/>
  <path d="m262.5 185.36v-19.109h-17.5v19.109c-10.16 3.6211-17.5 13.246-17.5 24.641v17.5c0 14.473 11.777 26.25 26.25 26.25 4.8281 0 8.75 3.9297 8.75 8.75v17.5c0 4.8203-3.9219 8.75-8.75 8.75s-8.75-3.9297-8.75-8.75v-8.75h-17.5v8.75c0 11.391 7.3398 21.016 17.5 24.641v19.109h17.5v-19.109c10.16-3.6211 17.5-13.246 17.5-24.641v-17.5c0-14.473-11.777-26.25-26.25-26.25-4.8281 0-8.75-3.9297-8.75-8.75v-17.5c0-4.8203 3.9219-8.75 8.75-8.75s8.75 3.9297 8.75 8.75v8.75h17.5v-8.75c0-11.391-7.3398-21.016-17.5-24.641z"/>
  <path d="m183.75 411.25h17.5v70h-17.5z"/>
  <path d="m218.75 376.25h17.5v70h-17.5z"/>
 </g>
</svg>
