<?xml version="1.0" encoding="UTF-8"?>
<svg width="700pt" height="700pt" version="1.1" viewBox="0 0 700 700" xmlns="http://www.w3.org/2000/svg" xmlns:xlink="http://www.w3.org/1999/xlink">
 <defs>
  <symbol id="p" overflow="visible">
   <path d="m29.312-1.75c-1.5117 0.78125-3.0898 1.3711-4.7344 1.7656-1.6367 0.40625-3.3398 0.60938-5.1094 0.60938-5.3125 0-9.5273-1.4844-12.641-4.4531-3.1055-2.9688-4.6562-7-4.6562-12.094s1.5508-9.125 4.6562-12.094c3.1133-2.9688 7.3281-4.4531 12.641-4.4531 1.7695 0 3.4727 0.19922 5.1094 0.59375 1.6445 0.39844 3.2227 0.99219 4.7344 1.7812v6.5938c-1.5312-1.0391-3.0391-1.8008-4.5156-2.2812-1.4805-0.48828-3.0391-0.73438-4.6719-0.73438-2.9375 0-5.2461 0.94531-6.9219 2.8281-1.6797 1.875-2.5156 4.4648-2.5156 7.7656 0 3.293 0.83594 5.8828 2.5156 7.7656 1.6758 1.875 3.9844 2.8125 6.9219 2.8125 1.6328 0 3.1914-0.23828 4.6719-0.71875 1.4766-0.48828 2.9844-1.2539 4.5156-2.2969z"/>
  </symbol>
  <symbol id="j" overflow="visible">
   <path d="m21.453-17.406c-0.67969-0.3125-1.3516-0.53906-2.0156-0.6875-0.65625-0.15625-1.3203-0.23438-1.9844-0.23438-1.9688 0-3.4844 0.63281-4.5469 1.8906-1.0547 1.2617-1.5781 3.0703-1.5781 5.4219v11.016h-7.6562v-23.922h7.6562v3.9219c0.97656-1.5625 2.1016-2.7031 3.375-3.4219 1.2812-0.71875 2.8125-1.0781 4.5938-1.0781 0.25 0 0.52344 0.011719 0.82812 0.03125 0.30078 0.023438 0.73438 0.070312 1.2969 0.14062z"/>
  </symbol>
  <symbol id="b" overflow="visible">
   <path d="m27.562-12.031v2.1875h-17.891c0.1875 1.793 0.83203 3.1367 1.9375 4.0312 1.1133 0.89844 2.6719 1.3438 4.6719 1.3438 1.6016 0 3.25-0.23438 4.9375-0.70312 1.6875-0.47656 3.4219-1.2031 5.2031-2.1719v5.8906c-1.8047 0.6875-3.6094 1.2031-5.4219 1.5469-1.8125 0.35156-3.6211 0.53125-5.4219 0.53125-4.3359 0-7.7031-1.0977-10.109-3.2969-2.3984-2.207-3.5938-5.2969-3.5938-9.2656 0-3.9062 1.1758-6.9727 3.5312-9.2031 2.3633-2.2383 5.6094-3.3594 9.7344-3.3594 3.7578 0 6.7695 1.1367 9.0312 3.4062 2.2578 2.2617 3.3906 5.2812 3.3906 9.0625zm-7.8594-2.5312c0-1.457-0.42969-2.6289-1.2812-3.5156-0.84375-0.89453-1.9492-1.3438-3.3125-1.3438-1.4922 0-2.6992 0.41797-3.625 1.25-0.91797 0.83594-1.4922 2.0391-1.7188 3.6094z"/>
  </symbol>
  <symbol id="i" overflow="visible">
   <path d="m14.391-10.766c-1.5938 0-2.793 0.27344-3.5938 0.8125-0.80469 0.54297-1.2031 1.3398-1.2031 2.3906 0 0.96875 0.32031 1.7305 0.96875 2.2812 0.64453 0.54297 1.5469 0.8125 2.7031 0.8125 1.4375 0 2.6445-0.51562 3.625-1.5469 0.98828-1.0312 1.4844-2.3203 1.4844-3.875v-0.875zm11.688-2.8906v13.656h-7.7031v-3.5469c-1.0312 1.4492-2.1875 2.5078-3.4688 3.1719s-2.8398 1-4.6719 1c-2.4805 0-4.4961-0.72266-6.0469-2.1719-1.543-1.4453-2.3125-3.3203-2.3125-5.625 0-2.8125 0.96094-4.8672 2.8906-6.1719 1.9375-1.3125 4.9688-1.9688 9.0938-1.9688h4.5156v-0.60938c0-1.207-0.48047-2.0938-1.4375-2.6562-0.94922-0.5625-2.4375-0.84375-4.4688-0.84375-1.6367 0-3.1562 0.16797-4.5625 0.5-1.4062 0.32422-2.7188 0.8125-3.9375 1.4688v-5.8281c1.6445-0.40625 3.2891-0.70703 4.9375-0.90625 1.6562-0.20703 3.3047-0.3125 4.9531-0.3125 4.3203 0 7.4375 0.85547 9.3438 2.5625 1.9141 1.6992 2.875 4.4609 2.875 8.2812z"/>
  </symbol>
  <symbol id="h" overflow="visible">
   <path d="m12.031-30.719v6.7969h7.875v5.4688h-7.875v10.141c0 1.1172 0.21875 1.8711 0.65625 2.2656 0.4375 0.38672 1.3125 0.57812 2.625 0.57812h3.9375v5.4688h-6.5625c-3.0234 0-5.1641-0.62891-6.4219-1.8906-1.2617-1.2578-1.8906-3.3984-1.8906-6.4219v-10.141h-3.7969v-5.4688h3.7969v-6.7969z"/>
  </symbol>
  <symbol id="g" overflow="visible">
   <path d="m19.953-20.422v-12.812h7.6875v33.234h-7.6875v-3.4531c-1.0547 1.4062-2.2148 2.4375-3.4844 3.0938-1.2734 0.65625-2.7422 0.98438-4.4062 0.98438-2.9492 0-5.3711-1.1719-7.2656-3.5156-1.8867-2.3438-2.8281-5.3594-2.8281-9.0469s0.94141-6.7031 2.8281-9.0469c1.8945-2.3438 4.3164-3.5156 7.2656-3.5156 1.6562 0 3.1172 0.33594 4.3906 1 1.2812 0.65625 2.4453 1.6836 3.5 3.0781zm-5.0469 15.484c1.6445 0 2.8945-0.59766 3.75-1.7969 0.86328-1.1953 1.2969-2.9297 1.2969-5.2031 0-2.2812-0.43359-4.0195-1.2969-5.2188-0.85547-1.1953-2.1055-1.7969-3.75-1.7969-1.625 0-2.8711 0.60156-3.7344 1.7969-0.85547 1.1992-1.2812 2.9375-1.2812 5.2188 0 2.2734 0.42578 4.0078 1.2812 5.2031 0.86328 1.1992 2.1094 1.7969 3.7344 1.7969z"/>
  </symbol>
  <symbol id="f" overflow="visible">
   <path d="m16.406-4.9375c1.6328 0 2.8828-0.59766 3.75-1.7969 0.86328-1.1953 1.2969-2.9297 1.2969-5.2031 0-2.2812-0.43359-4.0195-1.2969-5.2188-0.86719-1.1953-2.1172-1.7969-3.75-1.7969-1.6367 0-2.8906 0.60547-3.7656 1.8125-0.875 1.1992-1.3125 2.9336-1.3125 5.2031 0 2.2617 0.4375 3.9961 1.3125 5.2031 0.875 1.1992 2.1289 1.7969 3.7656 1.7969zm-5.0781-15.484c1.0508-1.3945 2.2188-2.4219 3.5-3.0781 1.2812-0.66406 2.7539-1 4.4219-1 2.9453 0 5.3672 1.1719 7.2656 3.5156 1.8945 2.3438 2.8438 5.3594 2.8438 9.0469s-0.94922 6.7031-2.8438 9.0469c-1.8984 2.3438-4.3203 3.5156-7.2656 3.5156-1.668 0-3.1406-0.33594-4.4219-1s-2.4492-1.6914-3.5-3.0781v3.4531h-7.6562v-33.234h7.6562z"/>
  </symbol>
  <symbol id="e" overflow="visible">
   <path d="m0.53125-23.922h7.6562l6.4219 16.234 5.4688-16.234h7.6562l-10.062 26.188c-1.0117 2.6641-2.1953 4.5234-3.5469 5.5781-1.3438 1.0625-3.1211 1.5938-5.3281 1.5938h-4.4219v-5.0156h2.3906c1.3008 0 2.2422-0.21094 2.8281-0.625 0.59375-0.40625 1.0547-1.1484 1.3906-2.2188l0.20312-0.65625z"/>
  </symbol>
  <symbol id="a" overflow="visible">
   <path d="m4.0156-31.891h8.2188v25.672h14.453v6.2188h-22.672z"/>
  </symbol>
  <symbol id="o" overflow="visible">
   <path d="m4.0156-31.891h8.2188v19.109c0 2.6367 0.42969 4.5234 1.2969 5.6562 0.86328 1.1367 2.2695 1.7031 4.2188 1.7031 1.9688 0 3.3789-0.56641 4.2344-1.7031 0.86328-1.1328 1.2969-3.0195 1.2969-5.6562v-19.109h8.2344v19.109c0 4.5234-1.1367 7.8867-3.4062 10.094-2.2617 2.2109-5.7148 3.3125-10.359 3.3125-4.625 0-8.0742-1.1016-10.344-3.3125-2.2617-2.207-3.3906-5.5703-3.3906-10.094z"/>
  </symbol>
  <symbol id="n" overflow="visible">
   <path d="m0.21875-31.891h29.391v6.2188h-10.578v25.672h-8.2188v-25.672h-10.594z"/>
  </symbol>
  <symbol id="m" overflow="visible">
   <path d="m4.0156-31.891h22.203v6.2188h-13.984v5.9375h13.141v6.2188h-13.141v13.516h-8.2188z"/>
  </symbol>
  <symbol id="d" overflow="visible">
   <path d="m4.0156-31.891h8.2188v31.891h-8.2188z"/>
  </symbol>
  <symbol id="l" overflow="visible">
   <path d="m32.688-2.375c-2.0547 1-4.1836 1.75-6.3906 2.25-2.2109 0.5-4.4844 0.75-6.8281 0.75-5.3125 0-9.5273-1.4844-12.641-4.4531-3.1055-2.9688-4.6562-7-4.6562-12.094 0-5.1328 1.5781-9.1758 4.7344-12.125 3.1641-2.9453 7.5-4.4219 13-4.4219 2.125 0 4.1562 0.19922 6.0938 0.59375 1.9453 0.39844 3.7852 0.99219 5.5156 1.7812v6.5938c-1.7812-1.0078-3.5547-1.7656-5.3125-2.2656-1.7617-0.5-3.5273-0.75-5.2969-0.75-3.2734 0-5.793 0.91797-7.5625 2.75-1.7734 1.8359-2.6562 4.4492-2.6562 7.8438 0 3.375 0.85156 5.9844 2.5625 7.8281 1.707 1.8359 4.1328 2.75 7.2812 2.75 0.85156 0 1.6445-0.050781 2.375-0.15625 0.73828-0.10156 1.3984-0.26953 1.9844-0.5v-6.2031h-5.0312v-5.5h12.828z"/>
  </symbol>
  <symbol id="c" overflow="visible">
   <path d="m23.375-5.8125h-12.859l-2.0312 5.8125h-8.2656l11.812-31.891h9.7969l11.812 31.891h-8.2656zm-10.812-5.9219h8.7344l-4.3594-12.688z"/>
  </symbol>
  <symbol id="k" overflow="visible">
   <path d="m4.0156-31.891h9.1875l11.594 21.875v-21.875h7.7969v31.891h-9.1875l-11.594-21.875v21.875h-7.7969z"/>
  </symbol>
 </defs>
 <g>
  <path d="m113.75 343.91c9.0977-0.019531 17.531-4.7656 22.277-12.531 5.6445 4.457 10.293 10.047 13.645 16.41 13.586 27.184 41.102 39.84 86.578 39.84 24.594 2.5898 46.34-13.289 43.434-39.59 7.9414-4.5195 13.805-11.965 16.34-20.746 2.5312-8.7812 1.5352-18.203-2.7773-26.262 8.1992-6.6328 12.973-16.605 13.004-27.152h52.5c9.2852 0.019531 18.195-3.6758 24.738-10.266 6.457-6.5977 10.062-15.477 10.027-24.711-0.03125-9.2344-3.6953-18.086-10.203-24.637-6.5039-6.5547-15.328-10.285-24.562-10.387h-81.867c-5.5039-15.324-17.805-27.227-33.301-32.219-15.492-4.9961-32.43-2.5195-45.844 6.7031-8.0703 4.6523-11.711 13.359-19.227 18.508-11.793 8.6484-25.715 13.934-40.277 15.289-2.9609-7.6523-9.332-13.484-17.223-15.758-7.8867-2.2695-16.383-0.71875-22.961 4.1875-6.5781 4.9102-10.484 12.613-10.551 20.82v96.25c0.007812 6.9609 2.7773 13.633 7.6953 18.555 4.9219 4.9219 11.594 7.6875 18.555 7.6953zm75.129-132.95c7.6523-4.668 10.797-12.07 17.797-17.477 10.027-7.3242 23.152-8.8906 34.625-4.1289 11.469 4.7578 19.629 15.16 21.523 27.434 1.5703 2.7148 4.418 4.4453 7.5547 4.5898h88.371c6.2031 0.070312 11.906 3.4219 14.988 8.8047 3.082 5.3867 3.082 12 0 17.387-3.082 5.3867-8.7852 8.7344-14.988 8.8086h-62.824c-4.7852 0.10547-8.6406 3.9609-8.75 8.75 0.75781 2.8672 1.2812 5.793 1.5742 8.75 0.019531 3.582-1.0781 7.082-3.1328 10.016-2.0586 2.9297-4.9766 5.1523-8.3516 6.3555-2.8594 1.0391-4.9727 3.4961-5.5781 6.4805-0.60547 2.9805 0.38281 6.0664 2.6133 8.1406 3.0625 2.8281 5.0117 6.6641 5.4844 10.809 0.47656 4.1445-0.55078 8.3203-2.8945 11.77-2.3477 3.4492-5.8516 5.9453-9.8789 7.0273-2.418 0.66406-4.4336 2.332-5.5391 4.582-2.543 4.5 1.2773 8.9453 1.0273 13.57 0.097656 5.5859-2.5273 10.871-7.0391 14.172-4.5117 3.2969-10.344 4.1992-15.641 2.4102-2.5195-0.89062-5.3125-0.56641-7.5625 0.88281-46.289-0.84766-60.105-16.473-66.934-30.129h0.003906c-5.918-11.156-14.648-20.574-25.328-27.312v-83.078c17.676-1.6719 34.566-8.1016 48.879-18.613zm-83.879 10.449c0.03125-4.6172 3.668-8.4023 8.2812-8.6211 4.6133-0.21484 8.5898 3.2109 9.0547 7.8047l-0.019532 97.973c-0.50781 4.5703-4.4922 7.957-9.0859 7.7148-4.5938-0.23828-8.2031-4.0195-8.2305-8.6211z"/>
  <path d="m595 212.66c-8.2617 0.57812-29.562-1.8086-35 2.4336-5.2969-4.2266-27.059-1.8672-35-2.4375v0.003906c-3.082 0.019531-6.1016 0.85938-8.75 2.4375-5.25-4.2227-27.152-1.8711-35-2.4375-5.1953 0.10156-10.098 2.4336-13.449 6.4062-3.3516 3.9727-4.8281 9.1953-4.0508 14.336l-13.988-8.0781c-4.0234-2.3125-8.7969-2.9375-13.277-1.7383-4.4844 1.2031-8.3047 4.1328-10.633 8.1484l-87.5 151.55c-2 3.5039-2.7383 7.5898-2.0898 11.574 0.65234 3.9805 2.6523 7.6211 5.668 10.301h-123.18c-4.832 0-8.75 3.918-8.75 8.75s3.918 8.75 8.75 8.75h376.25c4.6406-0.003906 9.0859-1.8516 12.367-5.1328 3.2812-3.2773 5.125-7.7266 5.1328-12.367v-175c-0.007812-4.6367-1.8516-9.0859-5.1328-12.367s-7.7266-5.125-12.367-5.1328zm-241.49 179.38 87.5-151.55 22.73 13.125-87.5 151.55zm42.941 13.125 67.297-116.56v116.56zm84.797 0v-175h26.25v175zm43.75 0v-175h26.25v175zm43.75 0v-175h26.25l0.007812 175z"/>
  <path d="m410.77 181.09c2.3242 0 4.5508-0.92188 6.1914-2.5625 1.6406-1.6406 2.5625-3.8672 2.5586-6.1875v-26.25c0-4.832-3.9141-8.75-8.75-8.75-4.832 0-8.75 3.918-8.75 8.75v26.25c0 2.3203 0.92188 4.5469 2.5625 6.1875s3.8672 2.5625 6.1875 2.5625z"/>
  <path d="m379.9 190.25c2.1719 4.2422 7.3438 5.9648 11.625 3.8711 4.2852-2.0898 6.1055-7.2227 4.0977-11.547l-11.508-23.59c-2.1602-4.2695-7.3477-6.0117-11.645-3.9141-4.3008 2.0977-6.1172 7.2578-4.0781 11.586z"/>
  <path d="m429.95 194.27c4.3438 2.1172 9.5781 0.3125 11.699-4.0273l11.512-23.594-0.003906 0.003906c2.1211-4.3438 0.32031-9.582-4.0234-11.699-4.3398-2.1172-9.5781-0.31641-11.695 4.0234l-11.512 23.594c-2.1211 4.3398-0.31641 9.5781 4.0234 11.699z"/>
 </g>
</svg>
