<?xml version="1.0" encoding="UTF-8"?>
<svg width="700pt" height="700pt" version="1.1" viewBox="0 0 700 700" xmlns="http://www.w3.org/2000/svg" xmlns:xlink="http://www.w3.org/1999/xlink">
 <defs>
  <symbol id="k" overflow="visible">
   <path d="m29.312-1.75c-1.5117 0.78125-3.0898 1.3711-4.7344 1.7656-1.6367 0.40625-3.3398 0.60938-5.1094 0.60938-5.3125 0-9.5273-1.4844-12.641-4.4531-3.1055-2.9688-4.6562-7-4.6562-12.094s1.5508-9.125 4.6562-12.094c3.1133-2.9688 7.3281-4.4531 12.641-4.4531 1.7695 0 3.4727 0.19922 5.1094 0.59375 1.6445 0.39844 3.2227 0.99219 4.7344 1.7812v6.5938c-1.5312-1.0391-3.0391-1.8008-4.5156-2.2812-1.4805-0.48828-3.0391-0.73438-4.6719-0.73438-2.9375 0-5.2461 0.94531-6.9219 2.8281-1.6797 1.875-2.5156 4.4648-2.5156 7.7656 0 3.293 0.83594 5.8828 2.5156 7.7656 1.6758 1.875 3.9844 2.8125 6.9219 2.8125 1.6328 0 3.1914-0.23828 4.6719-0.71875 1.4766-0.48828 2.9844-1.2539 4.5156-2.2969z"/>
  </symbol>
  <symbol id="b" overflow="visible">
   <path d="m21.453-17.406c-0.67969-0.3125-1.3516-0.53906-2.0156-0.6875-0.65625-0.15625-1.3203-0.23438-1.9844-0.23438-1.9688 0-3.4844 0.63281-4.5469 1.8906-1.0547 1.2617-1.5781 3.0703-1.5781 5.4219v11.016h-7.6562v-23.922h7.6562v3.9219c0.97656-1.5625 2.1016-2.7031 3.375-3.4219 1.2812-0.71875 2.8125-1.0781 4.5938-1.0781 0.25 0 0.52344 0.011719 0.82812 0.03125 0.30078 0.023438 0.73438 0.070312 1.2969 0.14062z"/>
  </symbol>
  <symbol id="a" overflow="visible">
   <path d="m27.562-12.031v2.1875h-17.891c0.1875 1.793 0.83203 3.1367 1.9375 4.0312 1.1133 0.89844 2.6719 1.3438 4.6719 1.3438 1.6016 0 3.25-0.23438 4.9375-0.70312 1.6875-0.47656 3.4219-1.2031 5.2031-2.1719v5.8906c-1.8047 0.6875-3.6094 1.2031-5.4219 1.5469-1.8125 0.35156-3.6211 0.53125-5.4219 0.53125-4.3359 0-7.7031-1.0977-10.109-3.2969-2.3984-2.207-3.5938-5.2969-3.5938-9.2656 0-3.9062 1.1758-6.9727 3.5312-9.2031 2.3633-2.2383 5.6094-3.3594 9.7344-3.3594 3.7578 0 6.7695 1.1367 9.0312 3.4062 2.2578 2.2617 3.3906 5.2812 3.3906 9.0625zm-7.8594-2.5312c0-1.457-0.42969-2.6289-1.2812-3.5156-0.84375-0.89453-1.9492-1.3438-3.3125-1.3438-1.4922 0-2.6992 0.41797-3.625 1.25-0.91797 0.83594-1.4922 2.0391-1.7188 3.6094z"/>
  </symbol>
  <symbol id="h" overflow="visible">
   <path d="m14.391-10.766c-1.5938 0-2.793 0.27344-3.5938 0.8125-0.80469 0.54297-1.2031 1.3398-1.2031 2.3906 0 0.96875 0.32031 1.7305 0.96875 2.2812 0.64453 0.54297 1.5469 0.8125 2.7031 0.8125 1.4375 0 2.6445-0.51562 3.625-1.5469 0.98828-1.0312 1.4844-2.3203 1.4844-3.875v-0.875zm11.688-2.8906v13.656h-7.7031v-3.5469c-1.0312 1.4492-2.1875 2.5078-3.4688 3.1719s-2.8398 1-4.6719 1c-2.4805 0-4.4961-0.72266-6.0469-2.1719-1.543-1.4453-2.3125-3.3203-2.3125-5.625 0-2.8125 0.96094-4.8672 2.8906-6.1719 1.9375-1.3125 4.9688-1.9688 9.0938-1.9688h4.5156v-0.60938c0-1.207-0.48047-2.0938-1.4375-2.6562-0.94922-0.5625-2.4375-0.84375-4.4688-0.84375-1.6367 0-3.1562 0.16797-4.5625 0.5-1.4062 0.32422-2.7188 0.8125-3.9375 1.4688v-5.8281c1.6445-0.40625 3.2891-0.70703 4.9375-0.90625 1.6562-0.20703 3.3047-0.3125 4.9531-0.3125 4.3203 0 7.4375 0.85547 9.3438 2.5625 1.9141 1.6992 2.875 4.4609 2.875 8.2812z"/>
  </symbol>
  <symbol id="g" overflow="visible">
   <path d="m12.031-30.719v6.7969h7.875v5.4688h-7.875v10.141c0 1.1172 0.21875 1.8711 0.65625 2.2656 0.4375 0.38672 1.3125 0.57812 2.625 0.57812h3.9375v5.4688h-6.5625c-3.0234 0-5.1641-0.62891-6.4219-1.8906-1.2617-1.2578-1.8906-3.3984-1.8906-6.4219v-10.141h-3.7969v-5.4688h3.7969v-6.7969z"/>
  </symbol>
  <symbol id="f" overflow="visible">
   <path d="m19.953-20.422v-12.812h7.6875v33.234h-7.6875v-3.4531c-1.0547 1.4062-2.2148 2.4375-3.4844 3.0938-1.2734 0.65625-2.7422 0.98438-4.4062 0.98438-2.9492 0-5.3711-1.1719-7.2656-3.5156-1.8867-2.3438-2.8281-5.3594-2.8281-9.0469s0.94141-6.7031 2.8281-9.0469c1.8945-2.3438 4.3164-3.5156 7.2656-3.5156 1.6562 0 3.1172 0.33594 4.3906 1 1.2812 0.65625 2.4453 1.6836 3.5 3.0781zm-5.0469 15.484c1.6445 0 2.8945-0.59766 3.75-1.7969 0.86328-1.1953 1.2969-2.9297 1.2969-5.2031 0-2.2812-0.43359-4.0195-1.2969-5.2188-0.85547-1.1953-2.1055-1.7969-3.75-1.7969-1.625 0-2.8711 0.60156-3.7344 1.7969-0.85547 1.1992-1.2812 2.9375-1.2812 5.2188 0 2.2734 0.42578 4.0078 1.2812 5.2031 0.86328 1.1992 2.1094 1.7969 3.7344 1.7969z"/>
  </symbol>
  <symbol id="e" overflow="visible">
   <path d="m16.406-4.9375c1.6328 0 2.8828-0.59766 3.75-1.7969 0.86328-1.1953 1.2969-2.9297 1.2969-5.2031 0-2.2812-0.43359-4.0195-1.2969-5.2188-0.86719-1.1953-2.1172-1.7969-3.75-1.7969-1.6367 0-2.8906 0.60547-3.7656 1.8125-0.875 1.1992-1.3125 2.9336-1.3125 5.2031 0 2.2617 0.4375 3.9961 1.3125 5.2031 0.875 1.1992 2.1289 1.7969 3.7656 1.7969zm-5.0781-15.484c1.0508-1.3945 2.2188-2.4219 3.5-3.0781 1.2812-0.66406 2.7539-1 4.4219-1 2.9453 0 5.3672 1.1719 7.2656 3.5156 1.8945 2.3438 2.8438 5.3594 2.8438 9.0469s-0.94922 6.7031-2.8438 9.0469c-1.8984 2.3438-4.3203 3.5156-7.2656 3.5156-1.668 0-3.1406-0.33594-4.4219-1s-2.4492-1.6914-3.5-3.0781v3.4531h-7.6562v-33.234h7.6562z"/>
  </symbol>
  <symbol id="d" overflow="visible">
   <path d="m0.53125-23.922h7.6562l6.4219 16.234 5.4688-16.234h7.6562l-10.062 26.188c-1.0117 2.6641-2.1953 4.5234-3.5469 5.5781-1.3438 1.0625-3.1211 1.5938-5.3281 1.5938h-4.4219v-5.0156h2.3906c1.3008 0 2.2422-0.21094 2.8281-0.625 0.59375-0.40625 1.0547-1.1484 1.3906-2.2188l0.20312-0.65625z"/>
  </symbol>
  <symbol id="c" overflow="visible">
   <path d="m4.0156-31.891h9.1875l11.594 21.875v-21.875h7.7969v31.891h-9.1875l-11.594-21.875v21.875h-7.7969z"/>
  </symbol>
  <symbol id="j" overflow="visible">
   <path d="m27.734-14.562v14.562h-7.7031v-11.109c0-2.0938-0.046875-3.5312-0.14062-4.3125-0.085937-0.78125-0.24219-1.3594-0.46875-1.7344-0.30469-0.5-0.71094-0.88281-1.2188-1.1562-0.51172-0.28125-1.0938-0.42188-1.75-0.42188-1.5938 0-2.8516 0.61719-3.7656 1.8438-0.90625 1.2305-1.3594 2.9375-1.3594 5.125v11.766h-7.6562v-33.234h7.6562v12.812c1.1445-1.3945 2.3633-2.4219 3.6562-3.0781 1.3008-0.66406 2.7383-1 4.3125-1 2.7578 0 4.8516 0.85156 6.2812 2.5469 1.4375 1.6875 2.1562 4.1523 2.1562 7.3906z"/>
  </symbol>
  <symbol id="i" overflow="visible">
   <path d="m15.062-19.031c-1.6992 0-2.9961 0.60938-3.8906 1.8281-0.88672 1.2188-1.3281 2.9766-1.3281 5.2656 0 2.293 0.44141 4.0469 1.3281 5.2656 0.89453 1.2188 2.1914 1.8281 3.8906 1.8281 1.6641 0 2.9375-0.60938 3.8125-1.8281 0.88281-1.2188 1.3281-2.9727 1.3281-5.2656 0-2.2891-0.44531-4.0469-1.3281-5.2656-0.875-1.2188-2.1484-1.8281-3.8125-1.8281zm0-5.4688c4.1133 0 7.3281 1.1094 9.6406 3.3281s3.4688 5.2969 3.4688 9.2344c0 3.9297-1.1562 7.0078-3.4688 9.2344-2.3125 2.2188-5.5273 3.3281-9.6406 3.3281-4.1367 0-7.3711-1.1094-9.7031-3.3281-2.3242-2.2266-3.4844-5.3047-3.4844-9.2344 0-3.9375 1.1602-7.0156 3.4844-9.2344 2.332-2.2188 5.5664-3.3281 9.7031-3.3281z"/>
  </symbol>
 </defs>
 <g>
  <path d="m262.5 481.25c0 6.9609 2.7656 13.641 7.6875 18.562s11.602 7.6875 18.562 7.6875h1.6094c-1.0352 2.8008-1.582 5.7617-1.6094 8.75 0 6.9609 2.7656 13.641 7.6875 18.562s11.602 7.6875 18.562 7.6875h87.5c9.3789 0 18.043-5.0039 22.734-13.125 4.6875-8.1211 4.6875-18.129 0-26.25-4.6914-8.1211-13.355-13.125-22.734-13.125h-1.6094c2.6836-7.1211 1.9844-15.078-1.8984-21.621 5.0742-3.1172 8.9102-7.9023 10.852-13.531 1.9453-5.6328 1.8711-11.766-0.20312-17.348h1.6094c9.3789 0 18.043-5.0039 22.734-13.125 4.6875-8.1211 4.6875-18.129 0-26.25-4.6914-8.1211-13.355-13.125-22.734-13.125h-87.5c-6.9609 0-13.641 2.7656-18.562 7.6875s-7.6875 11.602-7.6875 18.562c0.027344 2.9883 0.57422 5.9492 1.6094 8.75h-1.6094c-6.9609 0-13.641 2.7656-18.562 7.6875s-7.6875 11.602-7.6875 18.562c0.027344 4.5234 1.2305 8.957 3.5 12.871-7.6094 4.7852-12.234 13.141-12.25 22.129zm148.75 35c0 2.3203-0.92188 4.5469-2.5625 6.1875s-3.8672 2.5625-6.1875 2.5625h-87.5c-4.832 0-8.75-3.918-8.75-8.75s3.918-8.75 8.75-8.75h87.5c2.3203 0 4.5469 0.92188 6.1875 2.5625s2.5625 3.8672 2.5625 6.1875zm-96.25-26.25h-26.25c-4.832 0-8.75-3.918-8.75-8.75s3.918-8.75 8.75-8.75h87.5c4.832 0 8.75 3.918 8.75 8.75s-3.918 8.75-8.75 8.75zm0-78.75c0-4.832 3.918-8.75 8.75-8.75h87.5c4.832 0 8.75 3.918 8.75 8.75s-3.918 8.75-8.75 8.75h-87.5c-4.832 0-8.75-3.918-8.75-8.75zm-17.5 26.25h87.5c4.832 0 8.75 3.918 8.75 8.75s-3.918 8.75-8.75 8.75h-87.5c-4.832 0-8.75-3.918-8.75-8.75s3.918-8.75 8.75-8.75z"/>
  <path d="m586.25 315h-87.5c-6.8047-0.03125-13.355 2.5977-18.258 7.3203-4.8984 4.7266-7.7617 11.176-7.9805 17.977-0.21875 6.8047 2.2266 13.426 6.8125 18.453-4.3867 4.7695-6.8242 11.016-6.8242 17.5s2.4375 12.73 6.8242 17.5c-3.2266 3.457-5.4297 7.7422-6.3555 12.379-0.92578 4.6367-0.54297 9.4414 1.1055 13.871h-1.5742c-9.3789 0-18.043 5.0039-22.734 13.125-4.6875 8.1211-4.6875 18.129 0 26.25 4.6914 8.1211 13.355 13.125 22.734 13.125h1.6094c-2.1445 5.6367-2.1445 11.863 0 17.5h-1.6094c-9.3789 0-18.043 5.0039-22.734 13.125-4.6875 8.1211-4.6875 18.129 0 26.25 4.6914 8.1211 13.355 13.125 22.734 13.125h87.5c6.9609 0 13.641-2.7656 18.562-7.6875s7.6875-11.602 7.6875-18.562c-0.027344-2.9883-0.57422-5.9492-1.6094-8.75h1.6094c9.3789 0 18.043-5.0039 22.734-13.125 4.6875-8.1211 4.6875-18.129 0-26.25-4.6914-8.1211-13.355-13.125-22.734-13.125h-1.6094c2.1445-5.6367 2.1445-11.863 0-17.5h1.6094c6.8047 0.03125 13.355-2.5977 18.258-7.3203 4.8984-4.7266 7.7617-11.176 7.9805-17.977 0.21875-6.8047-2.2266-13.426-6.8125-18.453 4.3867-4.7695 6.8242-11.016 6.8242-17.5s-2.4375-12.73-6.8242-17.5c4.5859-5.0273 7.0312-11.648 6.8125-18.453-0.21875-6.8008-3.082-13.25-7.9805-17.977-4.9023-4.7227-11.453-7.3516-18.258-7.3203zm-87.5 17.5h87.5c4.832 0 8.75 3.918 8.75 8.75s-3.918 8.75-8.75 8.75h-87.5c-4.832 0-8.75-3.918-8.75-8.75s3.918-8.75 8.75-8.75zm96.25 43.75c0 2.3203-0.92188 4.5469-2.5625 6.1875s-3.8672 2.5625-6.1875 2.5625h-87.5c-4.832 0-8.75-3.918-8.75-8.75s3.918-8.75 8.75-8.75h87.5c2.3203 0 4.5469 0.92188 6.1875 2.5625s2.5625 3.8672 2.5625 6.1875zm-26.25 140c0 2.3203-0.92188 4.5469-2.5625 6.1875s-3.8672 2.5625-6.1875 2.5625h-87.5c-4.832 0-8.75-3.918-8.75-8.75s3.918-8.75 8.75-8.75h87.5c2.3203 0 4.5469 0.92188 6.1875 2.5625s2.5625 3.8672 2.5625 6.1875zm26.25-35c0 2.3203-0.92188 4.5469-2.5625 6.1875s-3.8672 2.5625-6.1875 2.5625h-87.5c-4.832 0-8.75-3.918-8.75-8.75s3.918-8.75 8.75-8.75h87.5c2.3203 0 4.5469 0.92188 6.1875 2.5625s2.5625 3.8672 2.5625 6.1875zm-26.25-35c0 2.3203-0.92188 4.5469-2.5625 6.1875s-3.8672 2.5625-6.1875 2.5625h-87.5c-4.832 0-8.75-3.918-8.75-8.75s3.918-8.75 8.75-8.75h87.5c2.3203 0 4.5469 0.92188 6.1875 2.5625s2.5625 3.8672 2.5625 6.1875zm17.5-26.25h-87.5c-4.832 0-8.75-3.918-8.75-8.75s3.918-8.75 8.75-8.75h87.5c4.832 0 8.75 3.918 8.75 8.75s-3.918 8.75-8.75 8.75z"/>
  <path d="m350 218.75c-11.602 0-22.73 4.6094-30.938 12.812-8.2031 8.207-12.812 19.336-12.812 30.938s4.6094 22.73 12.812 30.938c8.207 8.2031 19.336 12.812 30.938 12.812s22.73-4.6094 30.938-12.812c8.2031-8.207 12.812-19.336 12.812-30.938-0.015625-11.598-4.6289-22.719-12.828-30.922-8.2031-8.1992-19.324-12.812-30.922-12.828zm0 70c-6.9609 0-13.641-2.7656-18.562-7.6875s-7.6875-11.602-7.6875-18.562 2.7656-13.641 7.6875-18.562 11.602-7.6875 18.562-7.6875 13.641 2.7656 18.562 7.6875 7.6875 11.602 7.6875 18.562-2.7656 13.641-7.6875 18.562-11.602 7.6875-18.562 7.6875z"/>
  <path d="m376.25 0h17.5v17.5h-17.5z"/>
  <path d="m253.18 56.191c5.7773-11.656 14.707-21.457 25.773-28.297 11.062-6.8398 23.824-10.441 36.836-10.395h42.961v-17.5h-42.961c-16.262-0.058594-32.215 4.4453-46.047 12.996-13.836 8.5469-24.992 20.805-32.215 35.375l-30.738 61.469 15.652 7.8242z"/>
  <path d="m568.75 140h17.5v17.5h-17.5z"/>
  <path d="m533.75 26.25v8.75h-217.96c-9.7578-0.035156-19.328 2.668-27.629 7.7969-8.3008 5.1289-14.992 12.484-19.324 21.227l-39.926 79.836c-6.668 13.371-10.145 28.105-10.16 43.051v75.59c-0.050781 8.918 3.3281 17.516 9.4336 24.02 6.1055 6.5 14.473 10.41 23.379 10.922 8.9023 0.51172 17.664-2.4141 24.473-8.1758 7.3516 20.426 22.824 36.898 42.742 45.52 19.922 8.6211 42.523 8.6211 62.445 0 19.918-8.6211 35.391-25.094 42.742-45.52 6.8086 5.7617 15.57 8.6875 24.473 8.1758 8.9062-0.51172 17.273-4.4219 23.379-10.922 6.1055-6.5039 9.4844-15.102 9.4336-24.02v-43.75c0-11.602 4.6094-22.73 12.812-30.938 8.207-8.2031 19.336-12.812 30.938-12.812h8.75v8.75c0 2.3203 0.92188 4.5469 2.5625 6.1875s3.8672 2.5625 6.1875 2.5625h70v-17.5h-61.25v-140h61.25v-17.5h-70c-4.832 0-8.75 3.918-8.75 8.75zm-122.5 186.86c-14.91-18.562-37.438-29.363-61.25-29.363s-46.34 10.801-61.25 29.363v-18.312c0-14.688 6.7695-28.559 18.348-37.598s26.676-12.242 40.926-8.6797l43.348 10.84c5.6758 1.4219 10.719 4.6992 14.32 9.3125 3.6016 4.6133 5.5586 10.297 5.5586 16.152zm-61.25 110.64c-16.246 0-31.824-6.4531-43.309-17.941-11.488-11.484-17.941-27.062-17.941-43.309s6.4531-31.824 17.941-43.309c11.484-11.488 27.062-17.941 43.309-17.941s31.824 6.4531 43.309 17.941c11.488 11.484 17.941 27.062 17.941 43.309-0.019531 16.238-6.4766 31.809-17.961 43.289-11.48 11.484-27.051 17.941-43.289 17.961zm175-166.25c-16.246 0-31.824 6.4531-43.309 17.941-11.488 11.484-17.941 27.062-17.941 43.309v43.75c0 6.2539-3.3359 12.031-8.75 15.156s-12.086 3.125-17.5 0-8.75-8.9023-8.75-15.156v-77.672c0.011719-9.7617-3.2461-19.242-9.2539-26.938-6.0039-7.6914-14.414-13.152-23.883-15.512l-43.348-10.832c-19.477-4.8672-40.113-0.49219-55.938 11.863-15.824 12.355-25.078 31.312-25.078 51.391v67.699c0 6.2539-3.3359 12.031-8.75 15.156s-12.086 3.125-17.5 0-8.75-8.9023-8.75-15.156v-75.59c0.015625-12.227 2.8594-24.281 8.3125-35.219l39.926-79.844c2.8867-5.8281 7.3516-10.73 12.883-14.152 5.5312-3.418 11.914-5.2188 18.418-5.1953h217.96v105z"/>
  <path d="m115.68 506.48c-3.2852 8.082-2.3281 17.27 2.5547 24.496 4.8828 7.2305 13.047 11.551 21.77 11.52h87.5c8.5508 0.015625 16.57-4.1445 21.48-11.141 4.9141-7 6.1016-15.953 3.1797-23.992-2.918-8.0352-9.5781-14.141-17.836-16.352 1.8594-4.543 2.3867-9.5156 1.5195-14.348-0.87109-4.8281-3.0938-9.3086-6.418-12.918 3.2266-3.457 5.4297-7.7422 6.3555-12.379 0.92578-4.6367 0.54297-9.4414-1.1055-13.871h1.5742c9.3789 0 18.043-5.0039 22.734-13.125 4.6875-8.1211 4.6875-18.129 0-26.25-4.6914-8.1211-13.355-13.125-22.734-13.125h-1.6094c2.25-5.9883 2.1367-12.609-0.31641-18.516 8.2578-2.2109 14.918-8.3164 17.836-16.352 2.9219-8.0391 1.7344-16.992-3.1797-23.992-4.9102-6.9961-12.93-11.156-21.48-11.141h-87.5c-8.7227-0.03125-16.887 4.2891-21.77 11.52-4.8828 7.2266-5.8398 16.414-2.5547 24.496-8.2578 2.2109-14.918 8.3164-17.836 16.352-2.9219 8.0391-1.7344 16.992 3.1797 23.992 4.9102 6.9961 12.93 11.156 21.48 11.141h1.6094c-2.1445 5.6367-2.1445 11.863 0 17.5h-1.6094c-6.8047-0.03125-13.355 2.5977-18.258 7.3203-4.8984 4.7266-7.7617 11.176-7.9805 17.977-0.21875 6.8047 2.2266 13.426 6.8125 18.453-6.1562 6.7227-8.3438 16.18-5.7656 24.926 2.5781 8.7461 9.5469 15.5 18.367 17.809zm6.8242-33.984h87.5c4.832 0 8.75 3.918 8.75 8.75s-3.918 8.75-8.75 8.75h-87.5c-4.832 0-8.75-3.918-8.75-8.75s3.918-8.75 8.75-8.75zm105 52.5h-87.5c-4.832 0-8.75-3.918-8.75-8.75s3.918-8.75 8.75-8.75h87.5c4.832 0 8.75 3.918 8.75 8.75s-3.918 8.75-8.75 8.75zm-87.5-192.5h87.5c4.832 0 8.75 3.918 8.75 8.75s-3.918 8.75-8.75 8.75h-87.5c-4.832 0-8.75-3.918-8.75-8.75s3.918-8.75 8.75-8.75zm-26.25 43.75c0-4.832 3.918-8.75 8.75-8.75h87.5c4.832 0 8.75 3.918 8.75 8.75s-3.918 8.75-8.75 8.75h-87.5c-4.832 0-8.75-3.918-8.75-8.75zm26.25 35c0-4.832 3.918-8.75 8.75-8.75h87.5c4.832 0 8.75 3.918 8.75 8.75s-3.918 8.75-8.75 8.75h-87.5c-4.832 0-8.75-3.918-8.75-8.75zm-17.5 26.25h87.5c4.832 0 8.75 3.918 8.75 8.75s-3.918 8.75-8.75 8.75h-87.5c-4.832 0-8.75-3.918-8.75-8.75s3.918-8.75 8.75-8.75z"/>
 </g>
</svg>
